<svg  viewBox="0 0 202 244" fill="none" xmlns="http://www.w3.org/2000/svg">
<path fill-rule="evenodd" clip-rule="evenodd" d="M181.959 73.2357H151.739V63.9473H202V11.4319H191.82V0H110.066V11.4319H100.205V84.6676H90.0252V95.7423H75.074V107.174H60.1228V118.606H49.9433V129.681H31.4929V118.249H21.6315V107.174H11.452V84.6676H0V153.974H9.86142V165.406H20.0409V176.48H29.9024V187.912H40.0819V198.987H49.9433L51.5 231.139H67V226L61.7134 224V210.419H67H71.5748H81.7543V198.987H90.0252V210.419H100.205V244H121.836V231.139H111.657V187.912H121.836V176.48H131.698V159.69H141.877V120.392H150.148V131.467H161.918V107.174H141.877V86.4539H181.959V73.2357Z" fill="black"/>
<path d="M141.974 14H125V30.9914H141.974V14Z" fill="white"/>
</svg>
