<svg width="575" height="121" viewBox="0 0 575 121" fill="none" xmlns="http://www.w3.org/2000/svg">
<path fill-rule="evenodd" clip-rule="evenodd" d="M11.6276 5.56096C12.093 5.09561 12.093 4.34113 11.6276 3.87578C11.1623 3.41043 10.4078 3.41043 9.94244 3.87578L7.75149 6.06673L5.56089 3.87613C5.09554 3.41078 4.34106 3.41078 3.87571 3.87613C3.41036 4.34148 3.41036 5.09596 3.87571 5.56131L6.06631 7.75191L3.87578 9.94244C3.41043 10.4078 3.41043 11.1623 3.87578 11.6276C4.34113 12.093 5.09561 12.093 5.56096 11.6276L7.75149 9.43709L9.94237 11.628C10.4077 12.0933 11.1622 12.0933 11.6276 11.628C12.0929 11.1626 12.0929 10.4081 11.6276 9.94278L9.43667 7.75191L11.6276 5.56096Z" fill="#6F77FF"/>
<path fill-rule="evenodd" clip-rule="evenodd" d="M82.2987 33.5588H70.0897V45.7694H82.2987V33.5588ZM12.4671 47.757C13.2835 46.3429 15.3246 46.3429 16.1411 47.757L18.5903 51.9993C19.4068 53.4134 18.3862 55.181 16.7534 55.181H11.8548C10.2219 55.181 9.20138 53.4134 10.0178 51.9993L12.4671 47.757Z" fill="#50AEFF"/>
<path fill-rule="evenodd" clip-rule="evenodd" d="M73.0428 57.7633H60.8337V69.9739H73.0428V57.7633ZM26.1349 80.5777C28.4778 80.5777 30.3772 78.6784 30.3772 76.3354C30.3772 73.9925 28.4778 72.0931 26.1349 72.0931C23.7919 72.0931 21.8926 73.9925 21.8926 76.3354C21.8926 78.6784 23.7919 80.5777 26.1349 80.5777ZM562.07 79.8323H574.279V92.0413H562.07V79.8323Z" fill="#D7506F"/>
<path fill-rule="evenodd" clip-rule="evenodd" d="M44.4822 18.9019C44.4822 17.7304 45.4319 16.7807 46.6034 16.7807H50.1386C51.3101 16.7807 52.2598 17.7304 52.2598 18.9019V22.4372C52.2598 23.6086 51.3101 24.5583 50.1386 24.5583H46.6034C45.4319 24.5583 44.4822 23.6086 44.4822 22.4372V18.9019ZM48.838 45.6611H36.6289V57.8717H48.838V45.6611Z" fill="#D45CEF"/>
<path d="M86.6504 72.1921C86.6504 75.5577 86.8908 78.5226 87.3716 81.0868C87.9325 83.651 88.8941 85.8146 90.2564 87.5775C91.6987 89.2603 93.6219 90.5024 96.0259 91.3037C98.51 92.1852 101.675 92.6259 105.522 92.6259C107.204 92.6259 109.128 92.4656 111.291 92.1451C113.535 91.9047 115.418 91.4239 116.94 90.7027V78.5626C116.059 79.2037 114.857 79.6845 113.335 80.005C111.812 80.2454 110.41 80.3656 109.128 80.3656C105.922 80.3656 103.759 79.5242 102.637 77.8414C101.595 76.1587 101.074 73.8749 101.074 70.9901V45.7484H116.94V33.4881H101.074V16.7805H86.6504V72.1921Z" fill="black"/>
<path d="M237.115 45.7484V33.4882H249.015V16.7805H263.439V33.4882H279.305V45.7484H263.439V70.9901C263.439 73.8749 263.96 76.1587 265.001 77.8415C266.123 79.5242 268.287 80.3656 271.492 80.3656C272.774 80.3656 274.176 80.2454 275.699 80.005C277.221 79.6845 278.423 79.2037 279.305 78.5626V90.7027C277.782 91.4239 275.899 91.9047 273.656 92.1451C271.492 92.4656 269.569 92.6259 267.886 92.6259C264.04 92.6259 260.874 92.1852 258.39 91.3037C255.986 90.5024 254.063 89.2603 252.621 87.5775C251.259 85.8146 250.297 83.6511 249.736 81.0868C249.255 78.5226 249.015 75.5577 249.015 72.1921V45.7484H237.115Z" fill="black"/>
<path fill-rule="evenodd" clip-rule="evenodd" d="M142.813 77.4809C139.928 75.0769 138.245 71.7113 137.764 67.3842H181.757V63.4176C181.757 58.3693 181.076 53.9219 179.714 50.0756C178.432 46.1491 176.589 42.8637 174.185 40.2193C171.861 37.5749 169.016 35.5716 165.651 34.2093C162.365 32.767 158.719 32.0458 154.712 32.0458C150.385 32.0458 146.299 32.767 142.452 34.2093C138.606 35.6517 135.28 37.6951 132.476 40.3395C129.671 42.9839 127.427 46.1891 125.745 49.9554C124.142 53.6415 123.341 57.7683 123.341 62.3358C123.341 66.9034 124.142 71.0703 125.745 74.8365C127.427 78.5226 129.671 81.6878 132.476 84.3322C135.28 86.9766 138.606 89.0199 142.452 90.4623C146.299 91.9047 150.385 92.6259 154.712 92.6259C159.28 92.6259 163.647 91.7444 167.814 89.9815C171.981 88.2186 175.747 85.2537 179.113 81.0868L168.776 73.2739C166.933 75.5176 164.769 77.4007 162.285 78.9233C159.881 80.3656 156.876 81.0868 153.27 81.0868C149.183 81.0868 145.698 79.8848 142.813 77.4809ZM163.367 46.5898C165.931 48.9938 167.253 52.3193 167.333 56.5663H137.764C138.325 52.3994 139.848 49.0739 142.332 46.5898C144.896 44.1057 148.342 42.8637 152.669 42.8637C157.237 42.8637 160.803 44.1057 163.367 46.5898Z" fill="black"/>
<path d="M212.314 43.5848C217.042 43.5848 220.808 45.5481 223.613 49.4746L233.228 40.8203C230.905 37.615 227.86 35.3713 224.093 34.0892C220.327 32.7269 216.521 32.0458 212.674 32.0458C209.79 32.0458 206.945 32.4064 204.14 33.1276C201.336 33.8488 198.852 34.9706 196.688 36.4931C194.524 38.0156 192.762 39.9789 191.399 42.3829C190.117 44.7067 189.476 47.4713 189.476 50.6766C189.476 54.3627 190.237 57.2474 191.76 59.3309C193.282 61.4143 195.206 63.057 197.529 64.259C199.853 65.3809 202.337 66.2223 204.982 66.7832C207.706 67.264 210.23 67.8249 212.554 68.466C214.878 69.0269 216.801 69.7882 218.324 70.7497C219.846 71.7113 220.608 73.1938 220.608 75.1971C220.608 76.3189 220.287 77.3206 219.646 78.2021C219.085 79.0034 218.324 79.6845 217.362 80.2454C216.401 80.8064 215.359 81.207 214.237 81.4474C213.115 81.6878 212.033 81.808 210.992 81.808C207.947 81.808 205.342 81.167 203.179 79.8848C201.095 78.5226 199.132 76.7997 197.289 74.7163L187.673 83.7312C190.638 87.0968 194.004 89.4206 197.77 90.7027C201.536 91.9848 205.663 92.6259 210.15 92.6259C213.115 92.6259 216.08 92.3054 219.045 91.6643C222.01 91.0232 224.654 89.9815 226.978 88.5391C229.382 87.0967 231.305 85.2136 232.748 82.8898C234.27 80.4858 235.031 77.561 235.031 74.1153C235.031 70.3491 234.27 67.3842 232.748 65.2206C231.225 63.057 229.302 61.3742 226.978 60.1723C224.654 58.8901 222.13 57.9686 219.406 57.4077C216.761 56.7666 214.277 56.1656 211.953 55.6047C209.629 55.0438 207.706 54.3627 206.184 53.5613C204.661 52.76 203.9 51.4779 203.9 49.715C203.9 47.5514 204.822 45.9888 206.665 45.0272C208.508 44.0656 210.391 43.5848 212.314 43.5848Z" fill="black"/>
<path fill-rule="evenodd" clip-rule="evenodd" d="M347.538 86.015V33.4882H333.836V42.1425H333.595C331.512 38.6166 328.707 36.0524 325.181 34.4498C321.656 32.8471 317.849 32.0458 313.762 32.0458C309.275 32.0458 305.268 32.8471 301.743 34.4498C298.297 35.9723 295.332 38.0958 292.848 40.8203C290.364 43.5448 288.481 46.7501 287.199 50.4362C285.916 54.1223 285.275 58.0888 285.275 62.3358C285.275 66.4226 285.957 70.2689 287.319 73.8749C288.681 77.4809 290.604 80.606 293.088 83.2504C295.653 85.8948 298.698 88.0183 302.223 89.6209C305.749 91.1434 309.676 91.9047 314.003 91.9047C317.609 91.9047 321.135 91.2236 324.58 89.8613C328.026 88.4189 330.791 86.2954 332.874 83.4908H333.114V87.6978C333.114 90.5825 332.794 93.1868 332.153 95.5107C331.592 97.9146 330.59 99.958 329.148 101.641C327.786 103.324 325.903 104.646 323.499 105.607C321.175 106.569 318.29 107.05 314.844 107.05C310.758 107.05 307.152 106.329 304.026 104.886C303.684 104.728 303.357 104.579 303.042 104.436C300.492 103.275 298.775 102.494 296.207 100.14L286.357 110.535C290.444 114.141 294.891 116.626 299.699 117.988C304.507 119.35 309.596 120.031 314.964 120.031C320.574 120.031 325.422 119.23 329.508 117.627C333.595 116.025 336.961 113.741 339.605 110.776C342.33 107.891 344.333 104.325 345.615 100.078C346.897 95.9113 347.538 91.2236 347.538 86.015ZM309.796 46.3494C311.879 45.468 314.203 45.0272 316.767 45.0272C322.056 45.0272 326.223 46.5898 329.268 49.715C332.313 52.8401 333.836 56.9269 333.836 61.9752C333.836 64.3792 333.435 66.6229 332.634 68.7064C331.832 70.7898 330.67 72.5928 329.148 74.1153C327.706 75.5577 325.903 76.7196 323.739 77.6011C321.656 78.4825 319.292 78.9233 316.647 78.9233C314.243 78.9233 312 78.4825 309.916 77.6011C307.833 76.7196 306.03 75.5176 304.507 73.9951C302.985 72.4726 301.783 70.7097 300.901 68.7064C300.1 66.703 299.699 64.5395 299.699 62.2156C299.699 59.6514 300.1 57.3276 300.901 55.2441C301.783 53.0805 302.945 51.2776 304.387 49.8352C305.91 48.3127 307.712 47.1507 309.796 46.3494Z" fill="black"/>
<path d="M361.467 33.4882H375.891V42.6233H376.131C377.734 39.2577 380.018 36.6534 382.983 34.8103C385.948 32.9673 389.353 32.0458 393.2 32.0458C394.081 32.0458 394.923 32.1259 395.724 32.2862C396.605 32.4464 397.487 32.6468 398.368 32.8872V46.8302C397.166 46.5097 395.964 46.2693 394.762 46.109C393.64 45.8686 392.519 45.7484 391.397 45.7484C388.031 45.7484 385.307 46.3895 383.223 47.6716C381.22 48.8736 379.657 50.2759 378.535 51.8786C377.494 53.4812 376.773 55.0839 376.372 56.6865C376.051 58.2891 375.891 59.4911 375.891 60.2925V91.1835H361.467V33.4882Z" fill="black"/>
<path fill-rule="evenodd" clip-rule="evenodd" d="M441.48 83.2504H441.841V91.1835H454.822V58.0087C454.822 56.6464 454.782 55.0839 454.702 53.3209C454.622 51.4779 454.341 49.5948 453.861 47.6716C453.46 45.7484 452.739 43.8653 451.697 42.0223C450.735 40.0991 449.333 38.4163 447.49 36.9739C445.647 35.5315 443.323 34.3696 440.519 33.4882C437.714 32.5266 434.268 32.0458 430.181 32.0458C425.614 32.0458 421.167 32.767 416.839 34.2093C412.592 35.6517 408.866 38.0156 405.661 41.3011L413.233 48.8736C415.157 47.0305 417.44 45.5882 420.085 44.5464C422.729 43.4246 425.574 42.8637 428.619 42.8637C432.465 42.8637 435.63 43.7852 438.115 45.6282C440.599 47.3911 441.841 50.0756 441.841 53.6815V55.2441H438.235C435.831 55.2441 433.267 55.3242 430.542 55.4845C427.818 55.5646 425.093 55.8451 422.368 56.3259C419.724 56.7266 417.16 57.3676 414.676 58.2491C412.192 59.1305 409.988 60.3325 408.065 61.855C406.222 63.2974 404.739 65.1405 403.618 67.3842C402.496 69.5478 401.935 72.1921 401.935 75.3173C401.935 78.2021 402.536 80.7262 403.738 82.8898C404.94 85.0534 406.502 86.8564 408.425 88.2987C410.429 89.7411 412.673 90.8229 415.157 91.5441C417.721 92.2653 420.325 92.6259 422.97 92.6259C426.816 92.6259 430.342 91.9047 433.547 90.4623C436.752 88.9398 439.397 86.5358 441.48 83.2504ZM437.994 65.3408H440.999V68.5862C440.999 72.6729 439.797 75.9183 437.393 78.3223C435.069 80.6461 431.423 81.808 426.455 81.808C425.253 81.808 424.051 81.6878 422.849 81.4474C421.647 81.1269 420.566 80.6461 419.604 80.005C418.642 79.364 417.841 78.6027 417.2 77.7213C416.639 76.7597 416.359 75.5978 416.359 74.2355C416.359 72.1521 417.12 70.5494 418.642 69.4276C420.165 68.2256 422.008 67.3441 424.171 66.7832C426.415 66.1421 428.779 65.7415 431.263 65.5812C433.747 65.4209 435.991 65.3408 437.994 65.3408Z" fill="black"/>
<path d="M467.336 33.4882H481.039V42.5031H481.279C482.561 39.7786 484.605 37.3746 487.409 35.2911C490.294 33.1276 494.14 32.0458 498.948 32.0458C508.003 32.0458 514.013 35.6117 516.978 42.7435C519.061 39.0574 521.666 36.3729 524.791 34.6901C527.916 32.9272 531.642 32.0458 535.969 32.0458C539.816 32.0458 543.061 32.6868 545.706 33.969C548.35 35.2511 550.473 37.014 552.076 39.2577C553.759 41.5014 554.961 44.1458 555.682 47.1908C556.403 50.1557 556.764 53.361 556.764 56.8067V77.0425H556.785V91.1835H556.423C548.613 91.1835 542.282 84.8524 542.282 77.0425H542.34V58.4895C542.34 56.7266 542.18 55.0438 541.859 53.4411C541.539 51.7584 540.978 50.316 540.176 49.114C539.375 47.8319 538.293 46.8302 536.931 46.109C535.569 45.3878 533.806 45.0272 531.642 45.0272C529.399 45.0272 527.475 45.468 525.873 46.3494C524.35 47.1507 523.068 48.2726 522.026 49.715C521.065 51.0772 520.344 52.6799 519.863 54.5229C519.462 56.2858 519.262 58.0888 519.262 59.9319V91.1835H504.838V56.8067C504.838 53.2007 504.077 50.356 502.554 48.2726C501.032 46.109 498.508 45.0272 494.982 45.0272C492.578 45.0272 490.534 45.4279 488.852 46.2292C487.249 47.0305 485.887 48.1123 484.765 49.4746C483.723 50.8368 482.962 52.3994 482.481 54.1623C482 55.9252 481.76 57.7683 481.76 59.6915V91.1835H467.336V33.4882Z" fill="black"/>
</svg>
